<svg width="137" height="32" viewBox="0 0 137 32" fill="none" xmlns="http://www.w3.org/2000/svg">
<rect width="32" height="32" rx="16" fill="white"/>
<path d="M20.2803 8.28125H10.1666L8.45113 23.0631L8.36719 23.7201H9.40739L9.44024 23.4244L10.2323 16.5919H19.3131L20.2803 8.28125ZM18.4006 15.5663H10.3527L11.079 9.30686H19.1269L18.4006 15.5663Z" fill="black"/>
<path d="M25.462 10.375H20.9618H20.2136L20.0968 11.4006H20.9618H23.5824L21.6772 14.357L22.9327 17.6601H15.1731L15.1841 17.5652H15.1877L15.2863 16.7111H14.257L14.2388 16.8571H14.2351L14.1512 17.5579V17.5652L14.0234 18.6857H24.4218L22.8196 14.4774L25.462 10.375Z" fill="black"/>
<path d="M42.68 2H49.6C51.9467 2 53.7467 2.78666 55 4.36C56.28 5.93333 56.92 8.38667 56.92 11.72V11.8C56.92 13.5067 56.76 14.9467 56.44 16.12C56.1467 17.2933 55.6933 18.24 55.08 18.96C54.4933 19.68 53.7333 20.2 52.8 20.52C51.8667 20.84 50.7867 21 49.56 21H48.28V30H42.68V2ZM48.28 6.84V16.16H49.56C50.2 16.16 50.6533 15.9867 50.92 15.64C51.1867 15.2667 51.32 14.6533 51.32 13.8V9.28C51.32 8.42667 51.1867 7.81333 50.92 7.44C50.6533 7.04 50.2 6.84 49.56 6.84H48.28ZM58.3925 2H63.9925V30H58.3925V2ZM65.7056 8.88C65.7056 7.65333 65.8656 6.58667 66.1856 5.68C66.5323 4.74667 67.0123 3.98667 67.6256 3.4C68.2656 2.78667 69.0256 2.33333 69.9056 2.04C70.7856 1.74666 71.7723 1.6 72.8656 1.6C73.959 1.6 74.959 1.76 75.8656 2.08C76.7723 2.37333 77.5456 2.82667 78.1856 3.44C78.8256 4.05333 79.319 4.81333 79.6656 5.72C80.0123 6.62667 80.1856 7.68 80.1856 8.88V23.08C80.1856 24.3067 80.0123 25.3733 79.6656 26.28C79.319 27.1867 78.8256 27.9467 78.1856 28.56C77.5456 29.1733 76.7723 29.64 75.8656 29.96C74.959 30.2533 73.959 30.4 72.8656 30.4C71.7723 30.4 70.7856 30.2533 69.9056 29.96C69.0256 29.64 68.2656 29.1867 67.6256 28.6C67.0123 27.9867 66.5323 27.2267 66.1856 26.32C65.8656 25.3867 65.7056 24.3067 65.7056 23.08V8.88ZM71.3056 8.52V23.48C71.3056 23.8533 71.3456 24.1733 71.4256 24.44C71.5323 24.7067 71.6523 24.92 71.7856 25.08C71.9456 25.24 72.119 25.36 72.3056 25.44C72.519 25.4933 72.7323 25.52 72.9456 25.52C73.159 25.52 73.359 25.4933 73.5456 25.44C73.759 25.36 73.9323 25.24 74.0656 25.08C74.2256 24.92 74.3456 24.7067 74.4256 24.44C74.5323 24.1733 74.5856 23.8533 74.5856 23.48V8.52C74.5856 8.12 74.5323 7.78666 74.4256 7.52C74.3456 7.25333 74.2256 7.05333 74.0656 6.92C73.9323 6.76 73.759 6.64 73.5456 6.56C73.359 6.48 73.159 6.44 72.9456 6.44C72.7323 6.44 72.519 6.48 72.3056 6.56C72.119 6.64 71.9456 6.76 71.7856 6.92C71.6523 7.05333 71.5323 7.25333 71.4256 7.52C71.3456 7.78666 71.3056 8.12 71.3056 8.52ZM91.0478 2H96.6478V30H90.4478L86.5678 11.72H86.2478L87.4878 30H81.8878V2H88.0878L92.0878 20.4H92.4078L91.0478 2ZM108.621 6.84H104.021V12.92H108.541V17.76H104.021V25.12H108.741V30H98.4206V2H108.621V6.84ZM120.427 6.84H115.827V12.92H120.347V17.76H115.827V25.12H120.547V30H110.227V2H120.427V6.84ZM122.033 2H128.953C131.273 2 133.073 2.62666 134.353 3.88C135.633 5.10666 136.273 6.97333 136.273 9.48V9.68C136.273 10.8 136.14 11.7867 135.873 12.64C135.633 13.4667 135.313 14.1733 134.913 14.76C134.54 15.3467 134.1 15.8 133.593 16.12C133.113 16.44 132.633 16.6267 132.153 16.68V17.04C132.633 17.0933 133.113 17.2933 133.593 17.64C134.1 17.9867 134.54 18.4533 134.913 19.04C135.313 19.6 135.633 20.2933 135.873 21.12C136.14 21.9467 136.273 22.8667 136.273 23.88V24.32C136.273 25.52 136.286 26.5733 136.313 27.48C136.366 28.36 136.486 29.2 136.673 30H131.073C130.886 29.1467 130.766 28.2533 130.713 27.32C130.686 26.36 130.673 25.3333 130.673 24.24V21.36C130.673 20.64 130.526 20.12 130.233 19.8C129.966 19.4533 129.526 19.28 128.913 19.28H127.633V30H122.033V2ZM127.633 6.84V14.44H128.913C129.526 14.44 129.966 14.2667 130.233 13.92C130.526 13.5733 130.673 13.0267 130.673 12.28V9C130.673 8.28 130.526 7.74667 130.233 7.4C129.966 7.02667 129.526 6.84 128.913 6.84H127.633Z" fill="white"/>
</svg>
